<?xml version="1.0" standalone="no"?>
<!DOCTYPE svg PUBLIC "-//W3C//DTD SVG 20010904//EN"
 "http://www.w3.org/TR/2001/REC-SVG-20010904/DTD/svg10.dtd">
<svg version="1.0" xmlns="http://www.w3.org/2000/svg"
 width="500.000000pt" height="500.000000pt" viewBox="0 0 500.000000 500.000000"
 preserveAspectRatio="xMidYMid meet">

<g transform="translate(0.000000,500.000000) scale(0.100000,-0.100000)"
fill="#000000" stroke="none">
<path d="M2370 4273 c-8 -3 -94 -34 -190 -68 -254 -91 -479 -179 -605 -235
-60 -27 -147 -63 -192 -79 -45 -17 -126 -49 -180 -72 -54 -23 -201 -77 -328
-119 -354 -120 -375 -132 -375 -218 0 -70 165 -784 281 -1217 90 -336 211
-751 225 -772 20 -32 99 -74 238 -129 234 -91 514 -203 766 -307 140 -57 377
-155 526 -216 273 -112 320 -124 366 -100 12 7 103 84 202 173 100 88 245 216
323 284 79 68 241 216 360 329 262 248 355 330 493 436 134 104 210 175 210
198 0 10 -16 33 -35 50 -39 36 -43 62 -23 148 10 46 9 53 -8 72 -30 34 -264
145 -389 184 -396 124 -849 147 -1167 61 -17 -5 -12 2 21 31 66 56 245 276
302 370 56 92 90 166 126 268 52 152 71 287 42 306 -19 12 -77 2 -152 -27 -33
-13 -61 -24 -61 -24 -1 0 -1 84 -1 188 0 194 -12 270 -49 328 -27 40 -75 32
-231 -37 -75 -34 -141 -57 -145 -52 -5 4 -20 37 -34 73 -35 87 -72 140 -96
140 -10 0 -42 -9 -69 -20 l-50 -19 -18 37 c-18 37 -46 49 -83 35z m65 -54 c9
-26 1 -33 -50 -49 -22 -7 -112 -41 -200 -75 -88 -34 -207 -79 -265 -100 -58
-21 -226 -92 -374 -157 -148 -65 -393 -166 -545 -224 -302 -116 -318 -123
-343 -151 -17 -18 -15 -27 27 -190 24 -94 60 -251 79 -349 53 -272 114 -550
137 -623 11 -36 31 -118 44 -181 18 -89 92 -362 152 -561 7 -23 48 -40 343
-144 503 -177 812 -303 1159 -471 118 -57 218 -104 223 -104 5 0 23 16 40 35
83 95 594 541 1108 968 140 117 295 246 346 289 86 72 93 75 113 62 12 -9 21
-21 21 -28 0 -18 -55 -68 -235 -211 -186 -149 -253 -207 -465 -405 -85 -80
-279 -256 -430 -392 -151 -136 -312 -281 -358 -322 -50 -46 -91 -76 -104 -76
-24 0 -159 52 -428 165 -338 143 -843 346 -1043 421 -248 93 -316 124 -343
155 -14 16 -40 91 -74 214 -28 105 -76 278 -105 385 -102 373 -144 537 -200
780 -31 135 -74 317 -96 404 -21 88 -39 179 -39 203 l0 44 64 29 c36 16 170
65 298 109 128 44 361 133 518 199 157 65 420 169 585 231 165 62 316 118 335
126 54 22 97 19 105 -6z m173 -32 c6 -7 27 -49 46 -94 26 -62 32 -84 23 -92
-15 -12 -715 -295 -1029 -416 -125 -48 -235 -93 -245 -100 -15 -11 -15 -22 -3
-129 26 -228 0 -798 -51 -1116 -36 -226 -114 -530 -140 -546 -8 -4 -9 4 -4 26
4 17 7 98 8 178 2 306 -104 979 -235 1497 -16 66 -31 129 -31 140 -2 16 17 26
113 61 63 23 284 114 490 202 451 193 581 245 788 316 86 30 173 62 192 70 43
19 64 20 78 3z m461 -104 c5 -10 17 -53 26 -96 14 -62 16 -112 13 -238 -2
-101 -8 -163 -15 -170 -14 -14 -142 -69 -159 -69 -8 0 -13 39 -16 123 -4 117
-19 180 -38 161 -5 -5 -5 -29 0 -54 14 -69 12 -223 -2 -242 -12 -16 -189 -88
-215 -88 -9 0 -13 23 -14 78 -1 94 -19 184 -38 190 -11 4 -13 -4 -7 -39 4 -24
9 -89 13 -144 4 -79 3 -103 -8 -111 -23 -18 -222 -95 -228 -88 -3 3 -9 54 -12
112 -7 114 -22 173 -40 155 -8 -8 -8 -27 0 -64 5 -30 11 -92 13 -139 l3 -85
-105 -52 c-58 -28 -107 -52 -110 -52 -3 -1 -11 58 -18 130 -6 72 -14 135 -17
140 -4 5 -13 9 -22 9 -11 0 -14 -6 -8 -22 3 -13 9 -80 12 -151 l6 -127 -88
-41 c-49 -22 -108 -54 -132 -70 -51 -35 -50 -38 -57 91 -5 101 -29 190 -51
190 -11 0 -11 -9 0 -52 8 -29 19 -98 25 -153 10 -93 9 -107 -15 -205 -90 -369
-195 -645 -372 -977 -42 -78 -86 -154 -99 -170 l-23 -28 24 80 c82 273 128
603 146 1055 11 282 8 383 -16 505 -7 41 -9 74 -4 81 5 6 28 16 51 23 60 18
347 128 568 218 102 41 223 89 270 105 47 16 123 48 170 70 47 22 139 61 205
88 66 27 165 69 220 94 109 49 149 56 164 29z m268 -526 c-13 -144 -128 -407
-244 -562 -147 -196 -343 -370 -818 -725 -303 -227 -459 -337 -585 -411 -419
-248 -455 -268 -466 -257 -3 4 13 30 35 58 63 80 143 214 227 381 143 285 217
483 288 763 37 144 51 176 89 200 80 53 764 348 1062 459 66 25 163 64 215 88
95 42 163 67 189 68 11 1 13 -12 8 -62z m-2409 -87 c31 -123 106 -479 147
-697 60 -320 95 -596 102 -799 8 -224 -17 -429 -47 -398 -12 12 -125 427 -150
547 -11 54 -38 169 -60 255 -23 86 -68 290 -100 452 -33 162 -78 362 -99 445
-40 151 -41 175 -6 189 9 3 18 0 20 -7 42 -132 117 -442 150 -622 9 -49 27
-136 41 -193 13 -57 35 -167 49 -245 26 -145 81 -370 96 -397 17 -31 9 56 -16
159 -14 57 -35 156 -46 220 -11 64 -29 152 -39 196 -10 44 -37 172 -59 284
-45 221 -100 449 -133 550 -20 62 -20 65 -2 78 39 29 51 18 64 -64 6 -42 27
-131 46 -198 36 -129 92 -391 125 -585 11 -63 35 -206 55 -317 19 -111 39
-255 45 -320 19 -212 28 -233 25 -53 -3 141 -11 204 -50 435 -72 419 -123 673
-177 882 -60 237 -62 268 -15 261 15 -2 23 -17 34 -58z m2717 -809 c162 -24
313 -60 430 -101 100 -36 315 -139 315 -152 0 -4 -66 -60 -147 -125 -82 -64
-276 -225 -433 -358 -157 -132 -350 -295 -430 -360 -80 -66 -217 -181 -304
-255 -88 -74 -189 -159 -225 -189 l-65 -55 -50 29 c-235 130 -452 224 -686
297 -240 75 -644 168 -729 168 -22 0 -41 4 -41 8 0 5 46 34 103 64 236 129
588 356 792 514 75 57 209 159 298 226 89 66 181 138 204 159 82 75 220 125
405 149 112 14 414 4 563 -19z m733 -348 c-7 -16 -80 -79 -169 -148 -160 -123
-543 -440 -749 -620 -63 -56 -195 -168 -293 -249 -98 -81 -213 -179 -255 -217
-41 -38 -80 -68 -86 -66 -28 9 -12 37 46 83 35 27 158 128 273 224 116 97 289
240 385 320 96 79 254 212 350 295 227 196 501 417 508 410 2 -2 -2 -16 -10
-32z m-8 -78 c0 -8 -57 -61 -127 -117 -443 -358 -1010 -845 -1272 -1091 -69
-64 -129 -117 -133 -117 -4 0 -8 15 -8 34 0 29 8 40 48 73 52 42 179 150 366
313 67 58 218 186 336 285 118 98 271 227 340 286 99 84 436 347 448 349 1 0
2 -7 2 -15z m-3015 -715 c104 -13 537 -118 685 -165 345 -112 740 -305 740
-363 0 -6 -78 28 -172 76 -331 168 -679 302 -887 342 -103 20 -139 20 -87 0
15 -5 31 -10 35 -10 21 0 266 -75 368 -113 274 -103 748 -329 757 -362 3 -10
3 -21 1 -24 -3 -2 -81 33 -175 78 -365 176 -676 300 -1269 506 -131 45 -130
52 4 35z"/>
<path d="M3010 3228 c-22 -90 -54 -150 -182 -338 -152 -224 -162 -240 -155
-246 14 -15 191 221 298 397 38 62 66 140 71 198 5 55 -18 48 -32 -11z"/>
<path d="M2662 3015 c-21 -105 -68 -207 -177 -385 -86 -141 -117 -211 -80
-180 22 19 158 237 205 330 73 145 112 290 78 290 -10 0 -19 -18 -26 -55z"/>
<path d="M2366 2923 c-3 -3 -6 -28 -6 -54 0 -36 -15 -83 -58 -186 -54 -130
-106 -219 -260 -451 -30 -45 -52 -85 -48 -90 9 -8 51 41 102 118 20 30 64 95
96 143 60 88 130 226 174 345 32 83 32 207 0 175z"/>
<path d="M2076 2748 c-15 -108 -107 -299 -254 -523 -134 -205 -164 -256 -157
-272 8 -23 26 -4 89 100 31 51 79 124 106 162 58 84 166 285 205 381 17 41 30
96 33 137 6 80 -12 92 -22 15z"/>
<path d="M2980 2519 c-120 -12 -173 -23 -177 -35 -6 -19 24 -24 80 -13 92 17
287 22 393 10 217 -25 560 -118 636 -172 23 -17 32 -19 41 -9 24 24 -46 64
-202 114 -184 59 -355 94 -486 101 -55 3 -122 7 -150 9 -27 2 -88 -1 -135 -5z"/>
<path d="M2657 2323 c-24 -3 -37 -9 -34 -16 3 -9 47 -12 153 -13 117 0 181 -6
299 -28 278 -51 547 -132 628 -189 21 -14 32 -16 40 -8 53 53 -345 187 -718
242 -118 17 -268 22 -368 12z"/>
<path d="M2412 2149 c3 -9 36 -18 94 -27 109 -15 549 -130 681 -177 53 -19
128 -53 167 -75 50 -29 72 -37 80 -29 19 19 -51 66 -164 111 -133 52 -213 76
-485 143 -234 57 -381 79 -373 54z"/>
<path d="M2152 1939 c3 -9 28 -17 74 -21 269 -29 367 -56 703 -194 177 -73
257 -102 264 -95 7 7 8 14 1 21 -17 17 -495 206 -589 233 -115 33 -239 55
-362 63 -80 6 -95 5 -91 -7z"/>
<path d="M1780 1720 c0 -5 3 -10 8 -10 4 0 70 -5 147 -10 233 -17 376 -51 640
-150 161 -60 221 -89 288 -136 51 -37 67 -42 67 -20 0 18 -71 77 -128 105 -82
42 -355 141 -468 172 -62 16 -162 36 -221 44 -126 17 -333 20 -333 5z"/>
</g>
</svg>
